<svg width="32" height="32" viewBox="0 0 32 32" fill="none" xmlns="http://www.w3.org/2000/svg">
<path d="M19.4447 15.6967C19.4328 15.8673 19.3317 16.0208 19.1474 16.1742C19.076 16.2311 18.9987 16.2879 18.9274 16.3391C18.862 16.3903 18.8025 16.4414 18.7371 16.4869C18.4874 16.6745 18.2258 16.7939 17.9522 16.8394C16.8998 17.0156 16.222 17.0384 15.9544 16.9076C15.6452 16.7598 15.5619 16.197 15.5263 15.9866V15.9184C15.4846 15.7422 15.3776 15.3727 15.3717 15.367C15.3717 15.3556 15.3657 15.3499 15.3657 15.3442C15.3776 15.3101 15.449 15.2647 15.4847 15.2362L15.5263 15.1964C15.8355 14.9292 16.216 14.6507 16.7274 14.5825C16.9057 14.5597 17.0722 14.4972 17.2328 14.4403C17.3101 14.4062 17.3874 14.3835 17.4706 14.3608C17.6014 14.3153 17.7144 14.3153 17.8036 14.3494C18.2912 14.5256 18.8323 14.7644 19.2485 15.2078C19.3971 15.3727 19.4685 15.5375 19.4566 15.7024L19.4447 15.6967Z" fill="#FFE888"/>
<path d="M17.6671 18.6523C17.4887 18.7887 17.2925 18.9649 17.126 19.1866C16.9952 19.3629 16.799 19.4254 16.6028 19.4709C16.5909 19.4709 16.5849 19.4766 16.579 19.4766L15.9487 19.6528C15.9071 19.6699 15.8417 19.6869 15.7525 19.7097H15.7287C15.1995 19.8518 14.7595 19.7949 14.3314 19.5334C13.8438 19.2378 13.6833 18.8001 13.8438 18.2657C14.0222 17.7256 14.3552 17.3959 14.8665 17.2651C14.926 17.2481 14.9795 17.214 15.0152 17.1912C15.033 17.1742 15.0746 17.1458 15.0865 17.1458C15.1341 17.1685 15.1698 17.2253 15.2114 17.2765C15.2352 17.3106 15.259 17.3334 15.2768 17.3561C15.5325 17.6574 15.8655 17.8052 16.2638 17.8052H16.2817C16.6444 17.8052 16.9952 17.7825 17.2628 17.754C17.5839 17.737 17.7385 17.8166 17.8514 18.0724C17.9347 18.2714 17.8693 18.476 17.6611 18.6466L17.6671 18.6523Z" fill="#F4D13D"/>
<path d="M13.1954 19.687C13.1954 19.687 13.1835 19.6984 13.1775 19.704C13.0289 19.9087 12.5532 20.0736 12.2024 20.1475C12.1964 20.1475 12.1845 20.1532 12.1667 20.1532C12.0418 20.2043 11.8932 20.2271 11.6732 20.2271C10.9715 20.3294 10.7991 20.2384 10.7932 20.2384C10.7813 20.2214 10.7575 20.2043 10.7337 20.1986C10.698 20.193 10.6504 20.1759 10.5613 20.1418C10.1748 19.9826 9.79423 19.8234 9.41368 19.6643C9.24719 19.6017 9.20557 19.5335 9.20557 19.5164C9.24124 18.9593 9.81801 18.243 10.4186 18.2316L10.8169 18.2203C11.0607 18.2089 11.2926 18.2032 11.5305 18.1975C11.6732 18.1919 11.8337 18.2032 11.9645 18.2658C12.0656 18.3112 12.1488 18.3226 12.2261 18.2885C12.3153 18.2544 12.3807 18.1862 12.4343 18.0668L12.4521 18.0156C12.4699 17.9645 12.4937 17.9076 12.5175 17.8564C12.5235 17.8394 12.5294 17.8394 12.5353 17.8451C12.5294 17.9758 12.5591 18.0782 12.6364 18.1464C12.7018 18.2203 12.8089 18.2544 12.9456 18.2487C12.8445 18.658 12.9872 19.0275 13.1121 19.3573C13.1359 19.4255 13.1597 19.5051 13.1716 19.5847L13.1835 19.6529L13.1894 19.6756L13.1954 19.687Z" fill="#FFE888"/>
<path d="M13.4809 16.4289C13.023 16.9065 12.4819 17.2191 11.8814 17.3612C11.7684 17.3954 11.6495 17.3954 11.5187 17.401C11.4592 17.401 11.3938 17.401 11.3403 17.4067C11.0608 17.4067 10.6862 17.384 10.3354 17.1964C9.74083 16.8667 9.62785 15.9912 9.93705 15.4625C10.1035 15.1726 10.3116 14.9849 10.5852 14.8883C10.8884 14.7803 11.2154 14.7121 11.5603 14.6893H11.6138C11.8219 14.6893 12.0003 14.7746 12.1073 14.9452C12.3214 15.2919 12.6365 15.4795 13.0944 15.5364C13.3441 15.5591 13.5344 15.6956 13.6117 15.8889C13.683 16.0765 13.6295 16.2754 13.4749 16.4403L13.4809 16.4289Z" fill="#F4D13D"/>
<path d="M16.133 13.8653C15.7941 14.2575 15.3481 14.502 14.8724 14.7635L14.8308 14.7862C14.4384 14.8715 14.1232 14.8487 14.1113 14.8487C13.6773 14.8601 13.3324 14.7805 13.0232 14.61C12.7616 14.4735 12.5594 14.1154 12.5238 13.7402C12.5059 13.5355 12.5297 13.1433 12.8924 12.8647C13.0767 12.7169 13.2492 12.6203 13.4157 12.552L13.5286 12.5009C13.5286 12.5009 13.7724 12.3701 14.1708 12.3701C14.1946 12.3701 14.2243 12.3758 14.2481 12.3758C14.4324 12.3985 14.6168 12.4099 14.7892 12.4156C14.926 12.4213 15.0687 12.4213 15.2114 12.4327C15.2946 12.444 15.36 12.4497 15.3957 12.4554C15.4016 12.4611 15.4135 12.4668 15.4314 12.4668C15.4849 12.4781 15.6633 12.535 15.8773 12.7226C16.1271 12.9443 16.1568 13.0239 16.1925 13.1092C16.1925 13.1205 16.1984 13.1319 16.2044 13.1433C16.3946 13.3707 16.3768 13.5753 16.133 13.8653Z" fill="#F4D13D"/>
<path d="M31.9431 15.8952C31.8777 15.6734 31.741 15.5313 31.5209 15.4574C31.3128 15.3892 31.1107 15.3267 30.9145 15.2357C30.2247 14.923 29.4696 14.616 28.6609 14.4739C28.1258 14.3773 27.5728 14.292 27.0436 14.2124C26.5263 14.1328 25.9852 14.0532 25.462 13.9623C24.6592 13.8202 23.803 13.7633 22.9289 13.7917C23.4046 13.4961 23.696 13.0584 23.916 12.6718C23.9873 12.5524 24.0527 12.4273 24.1181 12.308C24.1895 12.1772 24.2609 12.0465 24.3382 11.9214C24.6533 11.3813 24.6117 10.9095 24.1954 10.449C24.029 10.2614 23.8327 10.1989 23.589 10.25C23.0122 10.3637 22.4295 10.5456 21.6862 10.8242C21.4484 10.9152 21.2046 10.9947 20.9668 11.063C20.503 11.2108 20.0213 11.3586 19.5754 11.6315C19.5813 11.6201 19.5813 11.6087 19.5873 11.603L19.6051 11.5632C19.7359 11.2335 19.8667 10.9095 19.9976 10.5797C20.2532 9.9544 20.5149 9.30632 20.7527 8.65824C20.937 8.15797 21.1095 7.64632 21.2759 7.15173C21.4841 6.54345 21.6922 5.91242 21.9241 5.30413C22.1976 4.58783 22.1322 3.93975 21.7279 3.33146C21.6268 3.18366 21.4781 2.95626 21.1808 2.92783C20.5505 2.87667 20.0511 3.05859 19.7121 3.47927L19.617 3.59297C19.284 4.00229 18.9392 4.42297 18.5705 4.81523C18.2018 5.20749 17.7975 5.58838 17.411 5.9579C17.0305 6.31037 16.644 6.67988 16.2813 7.06078C16.2694 7.07214 16.2575 7.08352 16.2456 7.09488C16.2397 7.09488 16.2397 7.10057 16.2337 7.10057C16.1505 6.85043 16.0613 6.60598 15.9721 6.36153C15.8948 6.15119 15.8175 5.94084 15.7461 5.7305C15.5975 5.3155 15.3715 4.93461 15.0742 4.60489C14.7175 4.21263 14.3072 4.15578 13.8494 4.42865C13.1775 4.83228 12.6839 5.45194 12.345 6.32742C12.0239 7.14605 12.0239 7.99879 12.0418 8.80605C12.0477 8.91406 12.0477 9.01639 12.0477 9.1244C12.018 9.06187 11.9942 8.99934 11.9645 8.9368C11.8099 8.57297 11.6434 8.19208 11.3877 7.86235C11.2272 7.66338 11.0666 7.47009 10.9001 7.27112C10.6742 6.99824 10.4423 6.71968 10.2223 6.43543C9.55038 5.53153 8.74173 4.66174 7.60604 3.61003C7.059 3.10975 6.4644 2.59811 5.67358 1.95003C5.58439 1.88181 5.50114 1.8079 5.4179 1.73968C5.17411 1.53503 4.92438 1.32468 4.65681 1.14277C4.55572 1.08023 4.26437 0.886945 3.99085 1.0916C3.58058 1.40427 3.37247 1.75105 3.34868 2.149C3.3249 2.564 3.37841 2.98468 3.43193 3.34283C3.50922 3.83742 3.64598 4.30927 3.82436 4.87208C3.97302 5.33824 4.1395 5.83283 4.38924 6.299C4.5914 6.65715 4.80546 7.04941 4.94816 7.47009C5.08492 7.8794 5.28114 8.30577 5.5606 8.81742C5.89953 9.43707 6.29196 10.034 6.67251 10.6139C6.839 10.8697 7.00548 11.1198 7.17197 11.3813C7.29684 11.5689 7.42171 11.7793 7.54063 12.0123C7.49901 11.9896 7.45739 11.9669 7.40982 11.9498C6.36926 11.5007 5.406 11.2165 4.46653 11.08C4.40707 11.0686 4.34167 11.063 4.27626 11.0573L4.15139 11.0402C3.15246 10.8924 2.24272 10.9265 1.36865 11.1312C1.22595 11.1653 1.10108 11.2335 0.988108 11.3302C0.672968 11.603 0.619449 12.2284 0.881074 12.6377C1.16054 13.0811 1.57082 13.4108 1.96326 13.7235L2.02866 13.7747C2.10001 13.8372 2.17731 13.8997 2.24866 13.9623C2.52218 14.1897 2.80759 14.4171 3.11679 14.6217C2.873 14.5762 2.63516 14.5535 2.39137 14.5535C1.48757 14.5535 0.74432 14.9458 0.179448 15.7246C0.0307971 15.9293 -0.0286625 16.151 0.0129597 16.3556C0.0545819 16.5717 0.203233 16.7649 0.441074 16.9184C0.571887 17.0037 0.720538 17.0719 0.869189 17.1402C1.22 17.2993 1.57676 17.4471 1.92163 17.5665C2.25461 17.6859 2.54002 17.8792 2.83732 18.0838C2.92651 18.1464 3.02164 18.2089 3.11083 18.2658C3.49733 18.5159 3.89571 18.6523 4.32383 18.6808C4.38329 18.6808 4.44275 18.6865 4.50221 18.6921C4.60924 18.6978 4.71627 18.7092 4.81735 18.7092C4.79357 18.7262 4.77573 18.7433 4.75194 18.7604C4.6687 18.8115 4.58545 18.8684 4.50815 18.9252C3.81842 19.4425 3.14651 20.0622 2.33191 20.9434C1.58271 21.7563 1.01189 22.6602 0.643237 23.6267C0.232961 24.7068 0.161609 25.6789 0.42918 26.5885C0.643237 27.3162 0.791886 27.6686 1.86812 27.7312C2.50434 27.7653 2.89083 27.5606 3.12867 27.066C3.26543 26.7761 3.49138 26.5203 3.81247 26.2815C4.12761 26.0541 4.42491 25.7642 4.69842 25.4231C5.2633 24.7068 6.03628 23.7858 6.96981 23.007C7.01143 22.9729 7.059 22.9388 7.10656 22.9104C7.1244 22.899 7.14819 22.8819 7.16603 22.8706L7.13035 22.9956C7.06495 23.206 6.99954 23.422 6.94603 23.638C6.72603 24.5078 6.58331 25.4288 6.5298 26.3838C6.46439 27.5436 6.48224 28.5043 6.58332 29.4139C6.63089 29.8062 6.73197 30.3121 7.08278 30.7442L7.10656 30.7726C7.18981 30.8749 7.29684 31 7.47522 31H7.499C7.85577 30.9716 8.31361 30.8977 8.65848 30.5282C8.74767 30.4315 8.83686 30.3349 8.9201 30.2382C9.0093 30.1416 9.09254 30.0449 9.18173 29.954L9.372 29.7493C9.78228 29.3059 10.2044 28.8454 10.5374 28.3281C10.5553 28.2997 10.5672 28.2883 10.5672 28.2826C10.5731 28.2883 10.585 28.2997 10.5969 28.3224C10.6385 28.3906 10.692 28.4475 10.7455 28.5043L10.7753 28.5384C10.8585 28.6237 10.9358 28.6635 11.025 28.6692C11.1023 28.6749 11.1855 28.6351 11.2628 28.5669C11.352 28.4873 11.4412 28.4134 11.5304 28.3395C11.8812 28.0382 12.2439 27.7312 12.4699 27.2934C12.5056 27.2309 12.5531 27.1684 12.6185 27.1058C12.6364 27.0831 13.0288 26.5771 13.1834 26.2929L13.1953 26.2758C13.1953 26.2758 13.2072 26.2474 13.2131 26.2417C13.4391 25.7699 13.5699 25.3378 13.6175 24.9285C13.6234 24.8717 13.6413 24.8262 13.6888 24.7693C13.7304 24.7238 13.7899 24.6556 13.8375 24.6443C13.9088 24.7921 14.4023 25.7699 14.7234 26.1564C14.7413 26.1792 14.7591 26.2019 14.7769 26.2247L14.8186 26.2701C15.0267 26.5316 15.2407 26.7988 15.4726 27.049C16.1505 27.771 16.8878 28.5327 17.7737 29.1524C18.5527 29.6982 19.3257 30.0449 20.1343 30.2041C20.6516 30.3121 21.1273 29.9312 21.2284 29.5276C21.3057 29.2092 21.2462 28.9136 21.1689 28.6123C21.0976 28.3395 21.0322 28.0666 20.9668 27.788C20.8597 27.356 20.7527 26.9069 20.6338 26.4691C20.384 25.5709 20.057 24.5306 19.4684 23.5698L19.5219 23.5869C19.6051 23.621 19.6884 23.6494 19.7775 23.6835L19.9857 23.7574C20.4138 23.9166 20.8538 24.0758 21.3057 24.1895C22.15 24.3941 22.9825 24.3771 23.91 24.3316C24.4749 24.3088 24.9684 24.1156 25.3787 23.7574C25.5214 23.638 25.5571 23.5016 25.4857 23.331C25.4322 23.2003 25.343 23.1036 25.2479 23.0127L25.2003 22.9558C25.0517 22.8023 24.909 22.6488 24.7603 22.4954C24.463 22.1884 24.1538 21.8757 23.8863 21.5403C23.809 21.438 23.7257 21.3413 23.6484 21.239C23.3214 20.824 22.9825 20.3976 22.59 20.0167C22.483 19.9144 22.3938 19.795 22.2987 19.6699L22.2273 19.579C22.2273 19.579 22.2214 19.5676 22.2154 19.5676H22.2273C22.7803 19.6245 23.3333 19.6017 23.91 19.4937C24.8019 19.3345 25.6879 19.2038 26.5501 19.0844C26.7701 19.0503 26.9841 19.0219 27.2041 18.9934C27.662 18.9309 28.1377 18.8684 28.6015 18.7774C28.8155 18.7376 29.0117 18.658 29.2079 18.5728C29.6004 18.3965 29.9334 18.2658 30.2663 18.1691C30.6588 18.0441 31.1582 17.8508 31.515 17.4301C31.9491 16.9241 32.0918 16.4239 31.9431 15.8952ZM21.1035 11.7167L21.2284 11.6769C21.4365 11.603 21.6387 11.5348 21.8408 11.4666C22.3403 11.3017 22.8635 11.1255 23.363 10.9208C23.4641 10.8754 23.5592 10.8754 23.6306 10.9208C23.7198 10.9777 23.7733 11.1084 23.7733 11.2676C23.7733 11.4041 23.6663 11.5746 23.5949 11.6883C23.2738 12.217 22.8933 12.831 22.4592 13.3938C22.263 13.661 21.9895 13.8372 21.6446 13.9225C21.5257 13.9566 21.4068 13.985 21.2878 14.0134C20.9192 14.0987 20.5446 14.184 20.1938 14.3545C19.6111 14.6445 19.1889 14.9401 18.8619 15.2925L18.8321 15.3267L18.7786 15.3778C18.6181 15.537 18.6181 15.5427 18.4575 15.4062C18.0175 15.0538 17.637 14.8491 17.2386 14.7411C17.2445 14.7354 17.2505 14.7354 17.2564 14.7297C17.3813 14.6388 17.5002 14.5478 17.6251 14.4569L17.8629 14.2863C18.0829 14.1215 18.2732 13.9225 18.4516 13.7292C18.5646 13.6098 18.6835 13.4904 18.8024 13.3767C18.8738 13.3142 18.9511 13.2573 19.0284 13.2005C19.1889 13.0811 19.3494 12.9617 19.4505 12.7912C19.8132 12.1602 20.4435 11.9441 21.1035 11.7167ZM12.6126 16.2704C12.8385 16.2931 13.011 16.4125 13.0823 16.5887C13.1477 16.7593 13.1002 16.9412 12.9575 17.089C12.5412 17.521 12.0537 17.8053 11.5066 17.936C11.4055 17.9645 11.2985 17.9645 11.1796 17.9701C11.1261 17.9701 11.0666 17.9701 11.0191 17.9758C10.7634 17.9758 10.4244 17.9531 10.1093 17.7825C9.56822 17.4812 9.46714 16.691 9.7466 16.2078C9.89525 15.9463 10.0855 15.7758 10.3353 15.6848C10.6088 15.5882 10.9061 15.5256 11.2212 15.5029H11.2688C11.4591 15.5029 11.6196 15.5825 11.7147 15.736C11.911 16.0486 12.1964 16.2192 12.6126 16.2704ZM12.4283 13.8543C12.5947 13.7178 12.7493 13.6326 12.9039 13.57L13.005 13.5245C13.005 13.5245 13.225 13.4052 13.5877 13.4052C13.6115 13.4052 13.6353 13.4108 13.6591 13.4108C13.8256 13.4336 13.9921 13.4393 14.1526 13.4449C14.2775 13.4449 14.4083 13.4449 14.5332 13.462C14.6105 13.4734 14.6699 13.4791 14.6996 13.4847C14.6996 13.4847 14.7175 13.4961 14.7294 13.4961C14.7769 13.5075 14.9375 13.5586 15.1337 13.7292C15.3596 13.9282 15.3894 14.0021 15.4191 14.0817C15.4191 14.093 15.4251 14.1044 15.431 14.1101C15.6034 14.3147 15.5856 14.5023 15.3656 14.7639C15.0564 15.122 14.6521 15.3437 14.224 15.5768L14.1883 15.5995C13.8315 15.6791 13.5461 15.6564 13.5342 15.6564C13.1418 15.6678 12.8266 15.5939 12.5472 15.4404C12.3093 15.3153 12.125 14.9912 12.0953 14.6502C12.0774 14.4626 12.1012 14.1101 12.4283 13.8543ZM13.4629 17.2595C13.6175 16.9582 13.665 16.691 13.6175 16.4182C13.6115 16.3897 13.6115 16.3784 13.6056 16.3727H13.6591C13.6948 16.3727 13.7364 16.3784 13.7721 16.367C14.004 16.367 14.0396 16.3897 14.105 16.583C14.1526 16.7138 14.1883 16.8502 14.218 16.9867L14.2477 17.1117C14.2596 17.1458 14.2537 17.1743 14.2002 17.197L14.1467 17.2197C14.0515 17.2652 13.9564 17.3107 13.8613 17.3334C13.558 17.4073 13.3023 17.5608 13.0704 17.7939L13.0407 17.8223C12.9694 17.8962 12.9039 17.9645 12.8148 17.9986C13.1061 17.7939 13.3261 17.5438 13.4629 17.2595ZM13.2845 18.7547C13.445 18.2658 13.7483 17.9645 14.2121 17.8451C14.2656 17.828 14.3132 17.7996 14.3488 17.7769C14.3667 17.7598 14.4023 17.7371 14.4142 17.7371C14.4559 17.7598 14.4915 17.811 14.5272 17.8565C14.551 17.8849 14.5688 17.9076 14.5867 17.9304C14.8186 18.2032 15.1218 18.3397 15.4845 18.3397H15.5024C15.8294 18.3397 16.1505 18.3169 16.3943 18.2942C16.6856 18.2771 16.8283 18.351 16.9294 18.5841C17.0067 18.766 16.9472 18.948 16.757 19.1071C16.5964 19.2322 16.418 19.3914 16.2635 19.5904C16.1445 19.7495 15.9661 19.8064 15.7878 19.8462C15.7759 19.8462 15.7699 19.8519 15.764 19.8519L15.1932 20.011C15.1575 20.0281 15.098 20.0395 15.0148 20.0622H14.991C14.5094 20.193 14.111 20.1418 13.7245 19.903C13.2845 19.6358 13.1358 19.2379 13.2845 18.7547ZM15.1991 17.521C14.9196 17.3846 14.8423 16.8786 14.8126 16.6854V16.6228C14.7769 16.4636 14.6759 16.1282 14.6699 16.1225C14.6699 16.1112 14.6699 16.1055 14.6699 16.0998C14.6818 16.0714 14.7472 16.0259 14.7769 16.0032L14.8126 15.9691C15.0921 15.7246 15.437 15.4745 15.9007 15.4119C16.0613 15.3892 16.2159 15.3323 16.3586 15.2812C16.4299 15.2528 16.5013 15.23 16.5726 15.2073C16.6916 15.1675 16.7926 15.1675 16.8759 15.1959C17.3159 15.3551 17.8094 15.5711 18.184 15.9747C18.3208 16.1225 18.3862 16.276 18.3743 16.4238C18.3624 16.5773 18.2732 16.7195 18.1067 16.8559C18.0413 16.9071 17.97 16.9582 17.9046 17.0037C17.8451 17.0492 17.7916 17.0947 17.7321 17.1402C17.5062 17.3107 17.2683 17.4187 17.0186 17.4585C16.0613 17.6177 15.4488 17.6404 15.2051 17.521H15.1991ZM17.2862 19.0503C17.304 18.9764 17.3337 18.8968 17.3754 18.8229C17.4467 18.7035 17.524 18.55 17.524 18.3624C17.524 18.2715 17.5062 18.1748 17.4586 18.0725C17.6191 17.9588 17.7737 17.8508 17.9283 17.7314C17.9937 17.6859 18.0651 17.6688 18.1364 17.6916C18.2435 17.7143 18.3208 17.7825 18.3564 17.8906C18.3564 17.8906 18.4159 17.9986 18.4219 18.1919C18.4219 18.3851 18.3683 18.533 18.2613 18.6239C18.2494 18.6296 18.2435 18.6353 18.2316 18.641C18.2316 18.641 18.2137 18.658 18.2019 18.6637C18.1364 18.7092 18.071 18.7604 18.0056 18.8058C17.8391 18.9366 17.6727 19.056 17.4705 19.0958L17.3456 19.1128C17.2981 19.1242 17.2862 19.1071 17.2862 19.1071C17.2862 19.1071 17.2743 19.0958 17.2862 19.0503ZM15.8888 8.47632C15.8888 8.47632 15.9186 8.45358 15.9245 8.44221L16.537 7.71454L16.644 7.61221L17.4527 6.86749C17.6191 6.69125 17.7975 6.52639 17.9759 6.36721C18.1721 6.19667 18.3683 6.01475 18.5467 5.82146C18.7727 5.57701 19.0046 5.33824 19.2365 5.10516C19.3316 5.00852 19.4267 4.90619 19.5219 4.80954C19.7478 4.57646 19.9262 4.32633 20.063 4.0705C20.2057 3.79763 20.6635 3.54181 20.9905 3.55886C21.0381 3.56455 21.0678 3.5816 21.1035 3.63845C21.2997 3.92838 21.3949 4.20694 21.3949 4.49687C21.3949 4.69585 21.3533 4.88345 21.27 5.05968C20.9073 5.87263 20.6397 6.73105 20.384 7.56105C20.3305 7.72591 20.277 7.89077 20.2295 8.05564C19.8311 9.31201 19.3316 10.7901 18.6656 12.1829C18.404 12.74 18.1483 13.2346 17.7202 13.6326C17.5656 13.7804 17.3872 13.9452 17.1851 14.0646C16.9056 14.2238 16.6262 14.4171 16.3586 14.6445C16.2278 14.7525 16.0732 14.7752 15.9007 14.798C15.9186 14.7354 15.9424 14.6786 15.9721 14.6217C16.1921 14.1101 16.097 13.7576 15.6451 13.4108C15.3596 13.1948 15.0505 12.9731 14.6402 12.9276C14.5213 12.9106 14.4321 12.8253 14.3548 12.6491C14.1645 12.2227 14.1169 11.7849 14.2121 11.3586C14.4142 10.466 14.8483 9.6531 15.4905 8.94249C15.5856 8.84584 15.6688 8.73783 15.7343 8.62982C15.7759 8.5616 15.8294 8.50475 15.8888 8.47632ZM12.5472 8.7094C12.5472 8.57297 12.5591 8.43653 12.5591 8.30009C12.571 8.22619 12.6245 7.86803 12.6839 7.54399L12.7137 7.36776C12.8266 6.77084 12.9396 6.20804 13.338 5.73619C13.5877 5.44057 13.891 5.20749 14.2418 5.04831C14.3548 4.99146 14.5332 4.95167 14.7472 5.19043C14.8959 5.36098 15.0207 5.55995 15.1099 5.79304C15.2645 6.19098 15.4132 6.58893 15.5618 6.99256L15.6867 7.33934C15.764 7.53262 15.7342 7.66906 15.5975 7.81119C15.1872 8.24892 14.6759 8.79468 14.3013 9.40296C13.8196 10.1932 13.5521 10.881 13.4629 11.5632C13.3975 12.0521 13.4688 12.5069 13.6829 12.8992C13.6888 12.9163 13.7007 12.9333 13.7007 12.9447H13.665C13.5818 12.939 13.5045 12.9504 13.4153 12.956C13.3796 12.9617 13.3439 12.9617 13.2845 12.9731C13.2429 12.9788 13.231 12.9788 13.231 12.9788C13.231 12.9788 13.2191 12.956 13.2191 12.8935C13.2191 12.4273 13.1358 11.9726 12.9634 11.5007C12.7137 10.8242 12.6185 10.1079 12.5531 9.49392C12.5293 9.2381 12.5412 8.96523 12.5531 8.7094H12.5472ZM2.02866 12.7912C1.84434 12.6377 1.6719 12.4558 1.52325 12.2511C1.44 12.1488 1.41028 12.0635 1.43406 11.9953C1.4519 11.9271 1.5292 11.8645 1.66001 11.8077C2.2011 11.5973 2.78381 11.478 3.40219 11.4666C3.44382 11.4666 3.47949 11.4609 3.51517 11.4609C4.16329 11.4609 4.84707 11.5973 5.6379 11.8702C5.76871 11.9157 5.89357 11.9612 6.01844 12.001C6.35736 12.1147 6.70818 12.2284 7.03522 12.3932C7.47522 12.6036 7.87361 12.8935 8.25415 13.1721C8.3374 13.2346 8.4147 13.2915 8.49794 13.3483C8.57524 13.4052 8.65848 13.4677 8.73578 13.5245C8.90227 13.6496 9.0747 13.7747 9.25308 13.8884C9.59795 14.1158 9.9666 14.2352 10.359 14.2465H10.585C10.7515 14.2579 10.9239 14.2579 11.0964 14.2579C11.1974 14.2579 11.2866 14.2124 11.3282 14.1385C11.3699 14.0703 11.3639 13.9736 11.3045 13.8827C11.2153 13.7406 11.0785 13.6553 10.918 13.6496C10.0023 13.5984 9.39579 13.0641 8.87254 12.4956C8.48604 12.0806 8.20064 11.5917 7.92118 11.1141L7.87361 11.0345C7.51685 10.4263 7.11251 9.82365 6.72602 9.24379C6.6071 9.06755 6.48818 8.89132 6.36926 8.7094C6.20872 8.46495 6.08385 8.2205 6.0006 7.98173C5.82222 7.44735 5.57844 6.93002 5.34059 6.43543C5.2514 6.25352 5.16222 6.06591 5.07898 5.884C4.93033 5.55995 4.80546 5.22454 4.68654 4.89482L4.5795 4.58783C4.44869 4.24105 4.36545 3.89427 4.27626 3.50201C4.17518 3.07564 4.13355 2.62085 4.14545 2.1092C4.14545 2.00688 4.16328 1.9216 4.19896 1.84201C4.23463 1.75674 4.26436 1.73968 4.2822 1.734C4.29409 1.734 4.32382 1.734 4.40112 1.77948C4.61518 1.91023 4.82329 2.07509 5.01951 2.22859C5.09087 2.28544 5.16222 2.34229 5.22763 2.39914C6.48818 3.38263 7.40982 4.1842 8.20658 5.0142C8.88443 5.70776 9.55633 6.4866 10.3412 7.45872C11.2034 8.53886 11.691 9.75543 12.0596 10.8071C12.1072 10.9436 12.1547 11.08 12.2083 11.2108C12.3391 11.5519 12.4758 11.9043 12.5293 12.2682C12.5531 12.4501 12.5769 12.6434 12.565 12.8423C12.5472 13.155 12.3985 13.3824 12.131 13.5132C11.5185 13.8202 11.4828 14.3602 11.5126 14.7354V14.7695C11.5185 14.8264 11.5245 14.8832 11.5185 14.8946C11.5066 14.906 11.4293 14.923 11.3699 14.9287C10.7039 15.0424 10.1807 15.2186 9.72876 15.4915C9.62174 15.5484 9.55039 15.6166 9.49093 15.6962C9.36606 15.8781 9.17579 15.9747 8.91416 15.9861C8.43253 16.0089 7.99847 15.9691 7.59414 15.8554C7.42171 15.8042 7.25522 15.7587 7.08278 15.7132C6.72602 15.6166 6.35737 15.5143 6.0006 15.4006C5.38222 15.1959 4.76978 14.8605 4.11571 14.3773L3.74706 14.1101C3.17625 13.6894 2.58164 13.2517 2.02866 12.7912ZM4.37734 18.0043C3.86004 17.9929 3.47355 17.6973 3.15246 17.4244C3.15246 17.4244 3.14057 17.413 3.13462 17.413C2.96219 17.2425 2.48651 17.0435 2.10596 16.8957C2.10002 16.8957 2.08812 16.89 2.08217 16.89C1.92758 16.8559 1.77893 16.8104 1.63028 16.7422C1.41622 16.6399 1.17838 16.5432 0.904864 16.4466C0.821619 16.4182 0.768105 16.3841 0.756213 16.3499C0.738375 16.3158 0.756208 16.2533 0.79783 16.1737C0.958373 15.8667 1.22595 15.628 1.66595 15.4006C1.92758 15.2698 2.22488 15.1959 2.48651 15.1959H2.55786C2.86705 15.1959 3.07516 15.2357 3.25354 15.338C3.60436 15.5313 3.99085 15.6109 4.36545 15.6791L4.47842 15.7019C4.75789 15.7587 5.02546 15.8724 5.28114 15.9804C5.35844 16.0145 5.44168 16.0486 5.51898 16.0771C6.48818 16.475 7.53468 16.6967 8.62875 16.7422H8.68227C8.68227 16.7422 8.72389 16.7422 8.73578 16.7479C8.78335 16.7593 8.83092 16.7536 8.87849 16.7479C8.96173 16.7422 8.96768 16.7479 8.97957 16.782C9.03903 16.9298 8.97956 17.1288 8.87254 17.2141C8.75361 17.305 8.60496 17.3221 8.44442 17.3391H8.39685C8.06982 17.3846 7.7963 17.4528 7.55252 17.5438C7.21954 17.6745 6.88657 17.7996 6.55359 17.9247C6.29196 18.0213 6.03629 18.1236 5.77466 18.2203C5.7152 18.243 5.68546 18.2487 5.65573 18.2373C5.23951 18.0554 4.79356 18.0156 4.37734 18.0043ZM6.69034 22.2623C5.79249 22.9843 5.0314 23.837 4.40112 24.5703C4.00274 25.0479 3.55679 25.4856 3.13462 25.8836C2.80759 26.1906 2.55191 26.4975 2.36164 26.8159C2.24866 26.9978 2.10596 27.0774 1.90379 27.0547C1.35081 27.0035 1.22595 26.9466 1.10703 26.4464C1.03567 26.128 1.01783 25.804 1.01189 25.4174C0.988104 24.9058 1.17838 24.3373 1.35082 23.8995C1.80271 22.7171 2.59353 21.6256 3.75301 20.5511C4.72815 19.6529 5.70331 19.0048 6.73791 18.5557C7.42765 18.2601 8.02225 18.1066 8.60497 18.0725C8.66443 18.0725 8.73578 18.0725 8.80119 18.0384C8.86065 18.0099 8.91416 17.9986 8.97362 17.9986C9.08659 17.9986 9.19957 18.0554 9.34822 18.1862C9.42552 18.2544 9.51471 18.3283 9.51471 18.3567C9.51471 18.3851 9.41957 18.4761 9.34822 18.5386C9.08659 18.7831 8.86659 19.056 8.7001 19.3459C8.35524 19.9485 8.41469 20.3919 8.90227 20.8751C8.932 20.9036 8.93795 20.9149 8.94389 20.9206C8.93795 20.9206 8.932 20.932 8.90227 20.9547C8.82497 21.0059 8.73578 21.0514 8.6228 21.0912C7.86171 21.3584 7.22549 21.8359 6.69034 22.2623ZM9.87147 28.0779C9.77634 28.186 9.68714 28.3053 9.60389 28.419C9.56227 28.4759 9.52066 28.5327 9.47309 28.5896C9.05092 29.1297 8.61091 29.6186 8.15901 30.0563C8.09955 30.1132 8.0282 30.17 7.93901 30.2325C7.77253 30.3405 7.71901 30.3349 7.60009 30.1814C7.44549 29.9881 7.35036 29.755 7.30874 29.4708C7.25522 29.141 7.24332 28.7999 7.22548 28.4702C7.21359 28.2314 7.20171 27.9927 7.17792 27.7539C7.1363 27.1911 7.15414 26.6112 7.23144 26.0257C7.25522 25.8267 7.279 25.6277 7.30278 25.4231C7.36819 24.8148 7.43954 24.1838 7.61792 23.5812C7.7963 22.9899 8.01631 22.5465 8.3255 22.1884C8.46821 22.0121 8.6228 21.9041 8.80119 21.8473C9.14011 21.7449 9.39579 21.5403 9.63363 21.3413C9.73471 21.2504 9.8239 21.2106 9.91904 21.2106C9.94877 21.2106 9.9785 21.2162 10.0142 21.2276C10.1093 21.2504 10.1212 21.2901 10.1093 21.3527C10.1034 21.3868 10.0974 21.4209 10.0915 21.455C10.0855 21.5119 10.0736 21.5687 10.0558 21.6256C9.91309 22.1031 9.85958 22.5863 9.8239 23.1662C9.78823 23.8029 9.77039 24.3259 9.77039 24.8148C9.77634 25.5652 9.88336 26.2758 10.0855 26.9296C10.2342 27.3958 10.1688 27.7482 9.87147 28.0779ZM10.3115 20.4658C9.96066 20.3237 9.61579 20.1759 9.27092 20.0338C9.12227 19.9769 9.08065 19.9144 9.08065 19.8973C9.11038 19.3914 9.63363 18.7433 10.1807 18.7319L10.5434 18.7206C10.7634 18.7092 10.9774 18.7035 11.1915 18.6978C11.3223 18.6921 11.465 18.7035 11.5839 18.7604C11.6731 18.8001 11.7504 18.8115 11.8218 18.7831C11.905 18.7547 11.9645 18.6921 12.012 18.5841L12.0299 18.5386C12.0477 18.4932 12.0656 18.442 12.0893 18.3965C12.0953 18.3795 12.1012 18.3795 12.1072 18.3851C12.1072 18.5045 12.131 18.5955 12.1964 18.658C12.2558 18.7262 12.351 18.7547 12.4758 18.749C12.3866 19.1185 12.5115 19.4539 12.6245 19.7552C12.6483 19.8178 12.6661 19.8917 12.678 19.9599L12.6899 20.0224L12.6958 20.0451C12.6899 20.0508 12.6839 20.0565 12.678 20.0622C12.5412 20.2498 12.1131 20.3976 11.792 20.4658C11.7861 20.4658 11.7742 20.4715 11.7623 20.4715C11.6493 20.517 11.5126 20.5397 11.3164 20.5397C10.6801 20.6307 10.5255 20.5511 10.5196 20.5511C10.5077 20.5341 10.4899 20.5227 10.4661 20.517C10.4363 20.5113 10.3888 20.4943 10.3115 20.4658ZM12.8921 25.2184C12.5175 26.1337 11.9823 26.9466 11.2926 27.6345C11.2866 27.6345 11.2747 27.6516 11.2747 27.6516C11.251 27.6686 11.2331 27.6914 11.2093 27.7084C11.1855 27.7369 11.132 27.7823 11.1201 27.788C11.0904 27.771 11.0726 27.7482 11.0607 27.7198C11.0607 27.7027 11.0607 27.7084 11.0488 27.6971C10.9358 27.4697 10.7931 26.8784 10.7455 26.6965C10.5553 25.9347 10.4661 25.1616 10.4899 24.3998C10.4958 24.2122 10.4958 24.0246 10.4958 23.837C10.4958 23.53 10.4958 23.2173 10.5196 22.9104C10.5612 22.393 10.7039 21.8871 10.8288 21.5062C10.8882 21.3299 10.9596 21.2901 11.2212 21.2901H11.3045C11.4293 21.3015 11.5661 21.3072 11.5839 21.3243C11.5958 21.3413 11.5899 21.4266 11.5899 21.5005C11.5839 21.5403 11.5839 21.5858 11.5839 21.6312C11.5601 22.4556 11.8872 23.1775 12.232 23.854C12.238 23.8711 12.2499 23.8938 12.2618 23.9109C12.2915 23.9507 12.3153 23.9905 12.3272 24.036C12.3866 24.2293 12.5293 24.3486 12.6423 24.4282C12.9575 24.6499 13.0288 24.8773 12.8921 25.2184ZM13.885 23.0638L13.8315 23.1775C13.7067 23.4504 13.5758 23.729 13.3796 23.9677C13.3261 24.036 13.2607 24.0701 13.2012 24.0701H13.1894C13.1299 24.0644 13.0764 24.0246 13.0407 23.9564C12.7137 23.3367 12.3748 22.6943 12.232 21.9837C12.131 21.455 12.2439 21.0912 12.6066 20.8126C12.672 20.7614 12.7315 20.7103 12.791 20.6591C12.8445 20.608 12.892 20.5625 12.9515 20.517C12.9991 20.4829 13.0407 20.4658 13.0883 20.4658C13.1299 20.4658 13.1775 20.4829 13.2191 20.5227C13.3796 20.6648 13.558 20.7501 13.7899 20.7899C14.0159 20.8297 14.1467 20.9775 14.1823 21.2333C14.1942 21.3356 14.2061 21.4493 14.2121 21.5573C14.218 21.6142 14.224 21.6767 14.224 21.7279C14.2477 22.2282 14.0694 22.683 13.885 23.0638ZM20.4019 28.2314L20.4257 28.3338C20.503 28.6521 20.5743 28.9477 20.61 29.2377C20.61 29.3741 20.5684 29.4764 20.4911 29.5333C20.4197 29.5788 20.3246 29.5845 20.2116 29.5503C19.8727 29.4423 19.5159 29.3229 19.0759 29.1695C18.8619 29.0956 18.6656 28.9762 18.4278 28.7829C18.2137 28.601 17.9878 28.4304 17.7678 28.2599C17.3278 27.9245 16.8759 27.572 16.4953 27.157C15.7997 26.3838 15.1872 25.6732 14.7115 24.8432C14.5926 24.6272 14.5213 24.3941 14.444 24.1497C14.4023 23.9962 14.3548 23.837 14.2894 23.6892C14.2715 23.6267 14.3072 23.5527 14.331 23.5186C14.7413 22.8706 14.8959 22.1258 14.8305 21.1139C14.8126 20.841 14.8483 20.7956 15.1397 20.733C15.2467 20.7046 15.3597 20.6875 15.4726 20.6648C15.5559 20.6534 15.6451 20.6364 15.7283 20.6193C15.9305 20.5795 16.1029 20.4829 16.2753 20.3862L16.3467 20.3521C16.3467 20.3521 16.3705 20.3351 16.3764 20.3351C16.3764 20.3351 16.3764 20.3389 16.3764 20.3464C16.5072 20.8695 16.8283 21.2901 17.1435 21.6938L17.191 21.762C17.3635 21.978 17.524 22.1827 17.6548 22.4101C17.7024 22.4897 17.7559 22.5693 17.8451 22.6204C18.3624 22.916 18.6121 23.3993 18.8738 23.9052C19.4862 25.0934 19.9559 26.4293 20.3959 28.2314H20.4019ZM22.3225 20.6193C22.3225 20.6193 22.3224 20.625 22.3343 20.6307C22.6435 20.9718 22.9289 21.3413 23.1965 21.7051L23.369 21.9269C23.7852 22.484 24.1598 22.916 24.5344 23.2856C24.6117 23.3595 24.6355 23.3936 24.6355 23.3936C24.6236 23.4163 24.5165 23.4618 24.4809 23.4788C24.13 23.6494 23.7435 23.6892 23.2798 23.6949H23.2441C21.7873 23.6949 20.5208 23.3993 19.3673 22.8023C18.9332 22.5749 18.4397 22.3191 18.0413 21.9496C17.9045 21.8188 17.8154 21.6597 17.7143 21.4948C17.6548 21.4038 17.6013 21.3072 17.5299 21.2162C17.417 21.0627 17.3159 20.9036 17.2089 20.7444C17.1494 20.6534 17.0899 20.5682 17.0305 20.4772C16.9532 20.3692 16.8997 20.2384 16.8699 20.0906C16.8343 19.8917 16.8997 19.7836 17.0899 19.7211C17.191 19.687 17.2921 19.6699 17.3813 19.6699C17.7321 19.6529 18.0651 19.5335 18.4219 19.3004C18.4397 19.2891 18.4575 19.2777 18.4694 19.2663L18.5348 19.2038C18.5646 19.181 18.6775 19.1242 19.0462 19.1242C19.1473 19.1242 19.2721 19.1299 19.4208 19.1412H19.4446C20.0808 19.1469 20.604 19.2038 21.0916 19.4425C21.2224 19.5051 21.3414 19.5904 21.4603 19.6756C21.5197 19.7211 21.5851 19.7666 21.6565 19.8177L21.6862 19.8519C22.0549 20.2953 22.2689 20.5568 22.3225 20.6193ZM31.1523 16.7536C30.9501 17.0549 30.6707 17.288 30.3199 17.4415C29.1901 17.9247 28.1793 18.2544 27.222 18.4477C26.7403 18.5443 26.2409 18.6012 25.7414 18.6125C25.0636 18.6353 24.4155 18.7774 23.8149 18.9309C23.2917 19.0617 22.7684 19.0105 22.3225 18.948C21.8289 18.8854 21.3414 18.7604 20.8657 18.6467C20.5922 18.5784 20.3246 18.5102 20.0511 18.4534C19.9381 18.4306 19.8192 18.4079 19.7062 18.3851C19.5754 18.3567 19.4386 18.3283 19.3078 18.2999C19.1354 18.2601 19.0521 18.1691 19.0462 18.0156C19.0402 17.7541 18.9927 17.3846 18.624 17.1288C18.6181 17.1231 18.6002 17.1117 18.6002 17.1004C18.5943 17.089 18.6062 17.0662 18.624 17.0492C18.85 16.7934 18.8916 16.475 18.9035 16.2021C18.9035 16.0202 18.9808 15.8952 19.1413 15.7871C19.2543 15.7132 19.3613 15.6336 19.4743 15.5541C19.6289 15.4347 19.7894 15.3153 19.95 15.2186C20.5981 14.8378 21.3295 14.6615 21.9657 14.5365C22.3284 14.4626 22.6911 14.4284 23.0479 14.4228C23.4225 14.4626 23.803 14.4796 24.1717 14.491C24.8852 14.5194 25.6225 14.5478 26.3182 14.7639C26.6868 14.8719 27.0614 14.8946 27.4241 14.9117C27.5906 14.923 27.7631 14.9287 27.9296 14.9458C28.2804 14.9856 28.6371 15.0595 28.9761 15.1277C29.1128 15.1561 29.2496 15.1845 29.3804 15.2073C29.428 15.2186 29.4755 15.2357 29.5112 15.2641C29.9215 15.5484 30.3674 15.6962 30.8372 15.844C31.0691 15.9179 31.2237 16.0316 31.2831 16.1851C31.3426 16.3443 31.295 16.5375 31.1523 16.7536Z" fill="#282828"/>
<path d="M23.7432 11.2509C23.7372 11.3873 23.6421 11.5579 23.5707 11.6716C23.2437 12.2003 22.8632 12.8142 22.4291 13.377C22.2329 13.6442 21.9594 13.8205 21.6145 13.9057C21.4956 13.9399 21.3767 13.9683 21.2577 13.9967C20.895 14.082 20.5145 14.1673 20.1637 14.3378C19.5869 14.6277 19.1588 14.9233 18.8318 15.2758L18.802 15.3099C18.802 15.3099 18.7723 15.344 18.7485 15.3611C18.588 15.5203 18.588 15.5259 18.4274 15.3895C17.9874 15.037 17.6069 14.8324 17.2085 14.7244C17.2085 14.7187 17.2204 14.7187 17.2263 14.713C17.3512 14.622 17.4761 14.5311 17.595 14.4401L17.8328 14.2696C18.0588 14.1047 18.2431 13.9057 18.4274 13.7125C18.5345 13.5931 18.6534 13.4737 18.7723 13.36C18.8437 13.2975 18.9209 13.2406 18.9982 13.1838C19.1588 13.0644 19.3253 12.945 19.4204 12.7744C19.7831 12.1434 20.4134 11.9274 21.0794 11.7L21.2042 11.6602C21.4064 11.5863 21.6086 11.5181 21.8107 11.4499C22.3161 11.285 22.8334 11.1088 23.3329 10.9041C23.434 10.8586 23.5291 10.8586 23.6005 10.9041C23.6897 10.961 23.7432 11.0917 23.7432 11.2509Z" fill="#EFEDE4"/>
<path d="M31.1283 16.7354C30.9202 17.0367 30.6408 17.2697 30.2899 17.4232C29.1661 17.9065 28.1494 18.2362 27.1921 18.4295C26.7104 18.5261 26.211 18.583 25.7115 18.5943C25.0337 18.6171 24.3855 18.7592 23.785 18.9127C23.2617 19.0434 22.7385 18.9923 22.2925 18.9297C21.799 18.8672 21.3114 18.7421 20.8358 18.6284C20.5622 18.5602 20.2947 18.492 20.0211 18.4352C19.9082 18.4124 19.7952 18.3897 19.6763 18.3669C19.5455 18.3385 19.4087 18.3101 19.2779 18.2817C19.1055 18.2419 19.0222 18.1509 19.0163 17.9974C19.0103 17.7359 18.9628 17.3664 18.5941 17.1106C18.5941 17.1049 18.5703 17.0935 18.5703 17.0821C18.5703 17.0708 18.5763 17.048 18.5941 17.031C18.826 16.7752 18.8617 16.4568 18.8736 16.1839C18.8795 16.002 18.9568 15.8769 19.1114 15.7689C19.2244 15.695 19.3374 15.6154 19.4444 15.5358C19.599 15.4165 19.7595 15.2971 19.926 15.2004C20.5682 14.8195 21.3055 14.6433 21.9358 14.5182C22.2985 14.4443 22.6671 14.4102 23.0179 14.4045C23.3925 14.4443 23.7731 14.4614 24.1417 14.4728C24.8553 14.5012 25.5926 14.5296 26.2883 14.7456C26.6629 14.8537 27.0315 14.8764 27.3942 14.8934C27.5607 14.9048 27.7331 14.9105 27.8996 14.9276C28.2504 14.9673 28.6072 15.0413 28.9461 15.1095C29.0829 15.1379 29.2197 15.1663 29.3505 15.1891C29.398 15.2004 29.4456 15.2175 29.4813 15.2459C29.8916 15.5302 30.3434 15.678 30.8072 15.8258C31.0391 15.8997 31.1937 16.0134 31.2532 16.1669C31.3127 16.326 31.271 16.5193 31.1283 16.7354Z" fill="white"/>
<path d="M24.6118 23.3767C24.6118 23.3767 24.4869 23.4449 24.4512 23.462C24.1004 23.6325 23.7139 23.6723 23.2501 23.678H23.2145C21.7577 23.678 20.4912 23.3824 19.3376 22.7854C18.9036 22.5581 18.4101 22.3022 18.0117 21.9327C17.8749 21.802 17.7857 21.6428 17.6847 21.4779C17.6311 21.387 17.5717 21.2903 17.5063 21.1994C17.3933 21.0459 17.2863 20.8867 17.1792 20.7275C17.1198 20.6365 17.0603 20.5513 17.0009 20.4603C16.9236 20.3523 16.87 20.2215 16.8463 20.0737C16.8106 19.8748 16.876 19.7668 17.0603 19.7042C17.1614 19.6701 17.2625 19.6531 17.3517 19.6531C17.7025 19.636 18.0355 19.5166 18.3922 19.2835C18.416 19.2722 18.4279 19.2608 18.4398 19.2494L18.4576 19.2324L18.5052 19.1869C18.5052 19.1869 18.6479 19.1073 19.0166 19.1073C19.1176 19.1073 19.2425 19.113 19.3912 19.1244H19.4149C20.0512 19.13 20.5744 19.1869 21.0679 19.4257C21.1988 19.4882 21.3117 19.5735 21.4307 19.6587C21.4961 19.7042 21.5555 19.7497 21.6269 19.8009L21.6566 19.835C22.0252 20.2784 22.2393 20.5399 22.2928 20.6024C22.2988 20.6024 22.2988 20.6081 22.3047 20.6138C22.6139 20.9549 22.8993 21.3244 23.1669 21.6883L23.3393 21.91C23.7555 22.4671 24.1301 22.8991 24.5047 23.2687C24.582 23.3426 24.6058 23.3767 24.6118 23.3767Z" fill="#F4F4F4"/>
<path d="M20.5798 29.2205C20.5798 29.3569 20.5382 29.4592 20.4609 29.5161C20.3896 29.5616 20.2944 29.5672 20.1815 29.5331C19.8425 29.4251 19.4858 29.3057 19.0458 29.1522C18.8317 29.0783 18.6355 28.959 18.3977 28.7657C18.1836 28.5838 17.9576 28.4132 17.7436 28.2427C17.2976 27.9072 16.8457 27.5548 16.4652 27.1398C15.7695 26.3666 15.1571 25.656 14.6814 24.826C14.5625 24.61 14.4911 24.3769 14.4198 24.1325C14.3722 23.979 14.3246 23.8198 14.2652 23.672C14.2414 23.6094 14.2771 23.5355 14.3008 23.5014C14.7171 22.8533 14.8717 22.1086 14.8003 21.0967C14.7825 20.8238 14.8181 20.7784 15.1095 20.7158C15.2165 20.6874 15.3295 20.6703 15.4425 20.6476C15.5257 20.6362 15.6149 20.6192 15.6982 20.6021C15.9003 20.5623 16.0787 20.4657 16.2452 20.369L16.3165 20.3349C16.3165 20.3349 16.3403 20.3179 16.3463 20.3179C16.3463 20.3236 16.3522 20.3236 16.3522 20.3292C16.483 20.8523 16.8041 21.2729 17.1193 21.6766L17.1668 21.7448C17.3393 21.9608 17.4998 22.1655 17.6306 22.3929C17.6782 22.4725 17.7317 22.552 17.8209 22.6032C18.3382 22.8988 18.5879 23.382 18.8495 23.888C19.4679 25.0762 19.9317 26.4121 20.3717 28.2142L20.3955 28.3166C20.4728 28.6349 20.5442 28.9305 20.5798 29.2205Z" fill="#F4F4F4"/>
<path d="M14.2 21.7101C14.2178 22.2103 14.0394 22.6651 13.8551 23.046L13.8016 23.1597C13.6767 23.4326 13.5459 23.7111 13.3497 23.9499C13.3021 24.0181 13.2367 24.0522 13.1713 24.0522H13.1594C13.1 24.0466 13.0465 24.0068 13.0108 23.9385C12.6838 23.3189 12.3448 22.6765 12.2081 21.9659C12.101 21.4372 12.214 21.0733 12.5767 20.7948C12.6421 20.7436 12.7016 20.6924 12.7611 20.6413C12.8146 20.5901 12.8681 20.5446 12.9216 20.4992C12.9692 20.4651 13.0167 20.448 13.0584 20.448C13.1059 20.448 13.1475 20.4651 13.1892 20.5048C13.3497 20.647 13.534 20.7322 13.76 20.772C13.9919 20.8118 14.1167 20.9596 14.1524 21.2155C14.1703 21.3178 14.1762 21.4315 14.1822 21.5395C14.1881 21.5964 14.194 21.6589 14.2 21.7101Z" fill="#EFEDE4"/>
<path d="M12.862 25.2011C12.4934 26.1164 11.9523 26.9293 11.2625 27.6172C11.2566 27.6172 11.2447 27.6343 11.2447 27.6343C11.2209 27.6513 11.2031 27.6741 11.1852 27.6911C11.1555 27.7195 11.1079 27.765 11.096 27.7707C11.0604 27.7536 11.0425 27.7309 11.0366 27.7025C11.0306 27.6854 11.0366 27.6911 11.0247 27.6797C10.9058 27.4523 10.7631 26.8611 10.7214 26.6792C10.5252 25.9174 10.436 25.1443 10.4598 24.3825C10.4658 24.1949 10.4658 24.0073 10.4658 23.8197C10.4658 23.5127 10.4658 23.2 10.4895 22.893C10.5312 22.3757 10.6798 21.8697 10.7987 21.4889C10.8582 21.3126 10.9296 21.2728 11.1912 21.2728H11.2744C11.4052 21.2842 11.5361 21.2899 11.5539 21.3069C11.5658 21.324 11.5598 21.4093 11.5598 21.4832C11.5539 21.523 11.5539 21.5684 11.5539 21.6139C11.5301 22.4382 11.8571 23.1602 12.202 23.8367C12.2139 23.8538 12.2258 23.8765 12.2377 23.8936C12.2615 23.9334 12.2853 23.9732 12.2971 24.0186C12.3566 24.2119 12.4993 24.3313 12.6182 24.4109C12.9334 24.6326 13.0047 24.86 12.862 25.2011Z" fill="white"/>
<path d="M9.84167 28.0606C9.74653 28.1686 9.65735 28.288 9.5741 28.4017C9.53248 28.4586 9.49085 28.5154 9.44923 28.5723C9.02706 29.1123 8.58111 29.6012 8.12921 30.039C8.06975 30.0958 7.9984 30.1527 7.90921 30.2152C7.74867 30.3232 7.6892 30.3175 7.57028 30.1641C7.41569 29.9708 7.32056 29.7377 7.27893 29.4534C7.23137 29.1237 7.21353 28.7826 7.19569 28.4529C7.1838 28.2141 7.17191 27.9754 7.14812 27.7366C7.11245 27.1738 7.12433 26.5939 7.20163 26.0084C7.22542 25.8094 7.2492 25.6104 7.27298 25.4058C7.33839 24.7975 7.40974 24.1665 7.58812 23.5639C7.7665 22.9726 7.98651 22.5292 8.2957 22.171C8.4384 21.9948 8.593 21.8868 8.77138 21.8299C9.11031 21.7276 9.36598 21.523 9.60382 21.324C9.70491 21.233 9.7941 21.1932 9.88924 21.1932C9.91897 21.1932 9.95465 21.1989 9.98438 21.2103C10.0855 21.233 10.0914 21.2728 10.0855 21.3354C10.0736 21.3695 10.0676 21.4036 10.0617 21.4377C10.0557 21.4945 10.0438 21.5514 10.026 21.6082C9.88329 22.0858 9.82978 22.569 9.7941 23.1489C9.75843 23.7856 9.74059 24.3086 9.74059 24.7975C9.74059 25.5479 9.85356 26.2585 10.0557 26.9123C10.2044 27.3784 10.139 27.7309 9.84167 28.0606Z" fill="#F4F4F4"/>
<path d="M8.66973 19.3287C8.32486 19.9313 8.38433 20.3747 8.87785 20.8579C8.90163 20.8863 8.90757 20.8977 8.91352 20.9034C8.90757 20.9034 8.90162 20.9147 8.87189 20.9375C8.7946 20.9886 8.7054 21.0341 8.59243 21.0739C7.83134 21.3411 7.19511 21.8186 6.65997 22.245C5.76212 22.967 5.00103 23.8197 4.3767 24.5531C3.97237 25.0306 3.52642 25.4684 3.10425 25.8663C2.77722 26.1733 2.52749 26.4803 2.33127 26.7986C2.21829 26.9806 2.07558 27.0601 1.87342 27.0374C1.32044 26.9862 1.20152 26.9294 1.07665 26.4291C1.0053 26.1108 0.987462 25.7867 0.981516 25.4001C0.957732 24.8885 1.14801 24.32 1.32044 23.8823C1.77829 22.6998 2.56316 21.6083 3.72263 20.5339C4.69778 19.6356 5.67293 18.9876 6.70754 18.5384C7.39728 18.2428 7.99188 18.0893 8.57459 18.0552C8.64 18.0552 8.70541 18.0552 8.77081 18.0211C8.83027 17.9927 8.88379 17.9813 8.94325 17.9813C9.05623 17.9813 9.1692 18.0382 9.31785 18.1689C9.39514 18.2371 9.48434 18.311 9.49029 18.3395C9.49029 18.3622 9.3892 18.4589 9.3238 18.5214C9.05623 18.7658 8.83622 19.0387 8.66973 19.3287Z" fill="white"/>
<path d="M8.84293 17.1969C8.72401 17.2878 8.57536 17.3049 8.41482 17.3219H8.36726C8.04023 17.3674 7.7667 17.4356 7.52292 17.5266C7.18994 17.6573 6.85697 17.7824 6.52399 17.9075C6.26831 18.0041 6.00669 18.1064 5.74506 18.2031C5.69155 18.2258 5.65587 18.2315 5.62614 18.2201C5.21587 18.0382 4.76991 17.9984 4.34774 17.9871C3.83044 17.9757 3.44394 17.6801 3.1288 17.4072C3.12286 17.4072 3.11097 17.3958 3.10502 17.3958C2.93259 17.2253 2.45691 17.0263 2.07636 16.8785C2.07042 16.8785 2.05852 16.8728 2.05257 16.8728C1.90392 16.8387 1.74933 16.7932 1.60662 16.725C1.38662 16.6227 1.14878 16.526 0.875264 16.4294C0.79202 16.401 0.738506 16.3669 0.726614 16.3328C0.708776 16.2986 0.726618 16.2361 0.76824 16.1565C0.928783 15.8495 1.19635 15.6108 1.63635 15.3834C1.89798 15.2526 2.19528 15.1787 2.45691 15.1787H2.52826C2.8434 15.1787 3.04556 15.2185 3.22394 15.3208C3.57476 15.5141 3.96126 15.5937 4.33586 15.6619L4.44882 15.6847C4.72829 15.7415 4.99586 15.8552 5.25154 15.9632C5.32884 15.9973 5.41208 16.0314 5.48938 16.0599C6.45858 16.4578 7.50509 16.6795 8.59915 16.725H8.65267C8.65267 16.725 8.69429 16.725 8.70618 16.7307C8.75375 16.7421 8.80726 16.7364 8.84889 16.7307C8.93213 16.725 8.93807 16.7307 8.95591 16.7648C9.00942 16.9126 8.95591 17.1116 8.84293 17.1969Z" fill="#EFEDE4"/>
<path d="M21.3656 4.47923C21.3656 4.6782 21.324 4.8658 21.2467 5.04203C20.878 5.85498 20.6105 6.7134 20.3548 7.5434C20.3013 7.70826 20.2537 7.87313 20.2002 8.03799C19.8018 9.29436 19.3024 10.7724 18.6423 12.1652C18.3748 12.7224 18.1191 13.217 17.691 13.6149C17.5364 13.7627 17.358 13.9276 17.1558 14.047C16.8764 14.2061 16.5969 14.3994 16.3293 14.6268C16.1985 14.7348 16.0439 14.7576 15.8715 14.7803C15.8893 14.7178 15.9191 14.6609 15.9428 14.6041C16.1628 14.0924 16.0737 13.74 15.6158 13.3932C15.3363 13.1772 15.0212 12.9555 14.6109 12.91C14.492 12.8929 14.4028 12.8076 14.3255 12.6314C14.1352 12.205 14.0877 11.7673 14.1828 11.3409C14.385 10.4484 14.819 9.63545 15.4672 8.92484C15.5623 8.82819 15.6396 8.72018 15.705 8.61217C15.7526 8.54395 15.8061 8.4871 15.8656 8.45867C15.8774 8.4473 15.8893 8.43594 15.8953 8.42456L16.5137 7.69689C16.5434 7.66278 16.5791 7.62868 16.6147 7.59457L17.4234 6.84984C17.5899 6.67361 17.7683 6.50874 17.9467 6.34957C18.1429 6.17902 18.3391 5.9971 18.5175 5.80381C18.7434 5.55936 18.9753 5.32059 19.2072 5.08751C19.3024 4.99087 19.3975 4.88854 19.4926 4.7919C19.7186 4.55881 19.897 4.30868 20.0337 4.05286C20.1764 3.77998 20.6343 3.52416 20.9672 3.54121C21.0148 3.5469 21.0386 3.56395 21.0743 3.6208C21.2705 3.91073 21.3656 4.18929 21.3656 4.47923Z" fill="white"/>
<path d="M15.567 7.79398C15.1567 8.23171 14.6453 8.77747 14.2707 9.38575C13.7891 10.176 13.5215 10.8638 13.4324 11.546C13.3669 12.0349 13.4383 12.4897 13.6524 12.882C13.6643 12.899 13.6702 12.9161 13.6702 12.9275H13.6345C13.5513 12.9218 13.474 12.9331 13.3907 12.9388C13.3491 12.9445 13.3134 12.9445 13.254 12.9559C13.2183 12.9616 13.2005 12.9616 13.2005 12.9616C13.2005 12.9616 13.1886 12.9388 13.1886 12.8763C13.1886 12.4101 13.1053 11.9553 12.9329 11.4835C12.6832 10.807 12.588 10.0907 12.5286 9.47671C12.5048 9.22089 12.5107 8.94802 12.5226 8.69219C12.5226 8.55576 12.5286 8.41932 12.5286 8.28288C12.5405 8.20898 12.594 7.85082 12.6534 7.52678L12.6832 7.35055C12.8021 6.75363 12.9091 6.19083 13.3075 5.71898C13.5572 5.42336 13.8605 5.19028 14.2113 5.0311C14.3243 4.97425 14.5026 4.93446 14.7167 5.17322C14.8653 5.34377 14.9902 5.54274 15.0794 5.77583C15.234 6.17377 15.3826 6.57172 15.5313 6.97535L15.6562 7.32213C15.7335 7.51541 15.7097 7.65185 15.567 7.79398Z" fill="#F4F4F4"/>
<path d="M12.5359 12.8254C12.518 13.1381 12.3694 13.3655 12.1018 13.4962C11.4894 13.8032 11.4537 14.3433 11.4834 14.7185V14.7526C11.4894 14.8094 11.4953 14.8663 11.4953 14.8776C11.4775 14.889 11.4002 14.9061 11.3407 14.9118C10.6748 15.0255 10.1575 15.2017 9.69961 15.4746C9.59853 15.5314 9.52123 15.5996 9.46177 15.6792C9.3369 15.8611 9.14663 15.9578 8.885 15.9692C8.40338 15.9919 7.96932 15.9521 7.56499 15.8384C7.39255 15.7872 7.22606 15.7418 7.05363 15.6963C6.69687 15.5996 6.32822 15.4973 5.97145 15.3836C5.35901 15.1789 4.74062 14.8435 4.08656 14.3603L3.71791 14.0931C3.14709 13.6724 2.55248 13.2347 1.9995 12.7742C1.81518 12.6207 1.64868 12.4388 1.49409 12.2342C1.41084 12.1318 1.38112 12.0466 1.4049 11.9783C1.42274 11.9101 1.50004 11.8476 1.63085 11.7907C2.17194 11.5804 2.75465 11.461 3.37303 11.4496C3.41466 11.4496 3.45033 11.4439 3.49195 11.4439C4.14007 11.4439 4.81792 11.5804 5.61469 11.8533C5.73956 11.8987 5.86443 11.9442 5.98929 11.984C6.32822 12.0977 6.67903 12.2114 7.00606 12.3763C7.44606 12.5866 7.84445 12.8765 8.225 13.1551C8.30824 13.2176 8.38554 13.2745 8.46878 13.3313C8.54608 13.3882 8.62932 13.4507 8.71256 13.5076C8.87311 13.6326 9.04554 13.7577 9.22392 13.8714C9.56879 14.0988 9.9434 14.2182 10.3358 14.2296H10.5558C10.7223 14.2409 10.8948 14.2409 11.0672 14.2409C11.1742 14.2409 11.2575 14.1955 11.2991 14.1215C11.3407 14.0533 11.3348 13.9567 11.2753 13.8657C11.1921 13.7236 11.0494 13.6383 10.8888 13.6326C9.97312 13.5815 9.36663 13.0471 8.84338 12.4786C8.46283 12.0636 8.17148 11.5747 7.89796 11.0972L7.84445 11.0176C7.48769 10.4093 7.08335 9.80669 6.69686 9.22683C6.57794 9.0506 6.45903 8.87436 6.34011 8.69244C6.17956 8.44799 6.0547 8.20354 5.97145 7.96477C5.79307 7.43039 5.54929 6.91306 5.31145 6.41847C5.22225 6.23656 5.13306 6.04895 5.04982 5.86704C4.90117 5.543 4.7763 5.20759 4.65738 4.87786L4.55035 4.57087C4.41953 4.22409 4.33629 3.87731 4.2471 3.48505C4.15196 3.05868 4.1044 2.60389 4.11629 2.09225C4.12223 1.98992 4.14007 1.90464 4.1698 1.82505C4.21142 1.73978 4.23521 1.72273 4.25304 1.71704C4.26494 1.71704 4.29467 1.71704 4.37197 1.76252C4.59197 1.89327 4.79414 2.05814 4.99035 2.21163C5.06171 2.26848 5.13306 2.32533 5.20441 2.38218C6.45902 3.36567 7.38066 4.16724 8.17743 4.99724C8.85527 5.6908 9.53312 6.46964 10.312 7.44176C11.1742 8.5219 11.6618 9.73847 12.0304 10.7902C12.078 10.9266 12.1256 11.0631 12.1791 11.1938C12.3099 11.5349 12.4467 11.8874 12.5002 12.2512C12.524 12.4331 12.5478 12.6264 12.5359 12.8254Z" fill="white"/>
</svg>
